<svg xmlns="http://www.w3.org/2000/svg" xmlns:xlink="http://www.w3.org/1999/xlink" width="500" zoomAndPan="magnify" viewBox="0 0 375 374.999991" height="500" preserveAspectRatio="xMidYMid meet" version="1.0"><defs><clipPath id="747a9f63f7"><path d="M 8.949219 51 L 365.949219 51 L 365.949219 324.582031 L 8.949219 324.582031 Z M 8.949219 51 " clip-rule="nonzero"/></clipPath></defs><g clip-path="url(#747a9f63f7)"><path fill="#ffffff" d="M 341.449219 161.984375 L 341.449219 132.023438 C 341.449219 119.554688 331.246094 109.351562 318.773438 109.351562 L 115.511719 109.351562 L 261.003906 93.472656 L 261.003906 67.078125 C 261.003906 61.875 258.753906 57.402344 254.582031 54.300781 C 250.410156 51.199219 245.480469 50.332031 240.5 51.835938 L 60.710938 105.9375 C 53.878906 107.992188 49.382812 114.042969 49.382812 121.179688 L 49.382812 172.496094 L 110.46875 172.496094 C 120.9375 172.496094 129.496094 181.0625 129.496094 191.527344 C 129.496094 201.996094 120.929688 210.554688 110.46875 210.554688 L 27.980469 210.554688 C 17.515625 210.5625 8.949219 219.125 8.949219 229.589844 C 8.949219 240.054688 17.515625 248.621094 27.980469 248.621094 L 164.234375 248.621094 C 174.703125 248.621094 183.261719 257.183594 183.261719 267.648438 C 183.261719 278.113281 174.699219 286.675781 164.234375 286.675781 L 108.808594 286.675781 C 98.339844 286.675781 89.78125 295.242188 89.78125 305.707031 C 89.78125 316.175781 98.347656 324.734375 108.808594 324.734375 L 318.769531 324.734375 C 331.238281 324.734375 341.441406 314.53125 341.441406 302.0625 L 341.441406 272.101562 L 299.386719 272.101562 C 295.671875 272.101562 292.640625 269.070312 292.640625 265.355469 C 292.640625 261.644531 295.671875 258.609375 299.386719 258.609375 L 353.195312 258.609375 C 360.277344 258.609375 366.058594 252.828125 366.058594 245.746094 L 366.058594 188.335938 C 366.058594 181.253906 360.285156 175.476562 353.195312 175.476562 L 276.070312 175.476562 C 272.359375 175.476562 269.320312 172.441406 269.320312 168.730469 C 269.320312 165.015625 272.351562 161.976562 276.070312 161.976562 L 341.449219 161.976562 Z M 274.015625 205.242188 C 267.492188 205.242188 262.207031 210.53125 262.207031 217.050781 C 262.207031 223.574219 267.492188 228.863281 274.015625 228.863281 C 280.535156 228.863281 285.824219 223.574219 285.824219 217.050781 C 285.824219 210.523438 280.535156 205.242188 274.015625 205.242188 Z M 245.941406 217.046875 C 245.941406 201.605469 258.574219 188.972656 274.015625 188.972656 L 352.566406 188.972656 L 352.566406 245.117188 L 274.015625 245.117188 C 258.582031 245.117188 245.941406 232.488281 245.941406 217.046875 Z M 245.941406 217.046875 " fill-opacity="1" fill-rule="evenodd"/></g></svg>